<svg xmlns="http://www.w3.org/2000/svg" viewBox="0 0 800 400">
  <defs>
    <linearGradient id="bg4" x1="0%" y1="0%" x2="100%" y2="100%">
      <stop offset="0%" style="stop-color:#0A0C14;stop-opacity:1"/>
      <stop offset="100%" style="stop-color:#0d1117;stop-opacity:1"/>
    </linearGradient>
  </defs>
  <rect width="800" height="400" fill="url(#bg4)"/>
  <!-- Dashboard mockup -->
  <g transform="translate(100, 50)">
    <!-- Browser frame -->
    <rect x="0" y="0" width="600" height="320" rx="8" fill="#1a1a2e" stroke="rgba(59,130,246,0.3)" stroke-width="1.5"/>
    <!-- Title bar -->
    <rect x="0" y="0" width="600" height="32" rx="8" fill="rgba(59,130,246,0.1)"/>
    <circle cx="20" cy="16" r="5" fill="#EF4444" opacity="0.6"/>
    <circle cx="38" cy="16" r="5" fill="#F59E0B" opacity="0.6"/>
    <circle cx="56" cy="16" r="5" fill="#10B981" opacity="0.6"/>
    <text x="300" y="20" text-anchor="middle" fill="rgba(255,255,255,0.4)" font-family="monospace" font-size="11">GWES — Warehouse Execution System</text>
    <!-- Sidebar -->
    <rect x="0" y="32" width="140" height="288" fill="rgba(10,12,20,0.8)"/>
    <rect x="12" y="50" width="116" height="24" rx="4" fill="rgba(59,130,246,0.2)"/>
    <text x="70" y="66" text-anchor="middle" fill="rgba(59,130,246,0.8)" font-family="monospace" font-size="9">Dashboard</text>
    <rect x="12" y="82" width="116" height="24" rx="4" fill="transparent"/>
    <text x="70" y="98" text-anchor="middle" fill="rgba(255,255,255,0.3)" font-family="monospace" font-size="9">Inventory</text>
    <rect x="12" y="114" width="116" height="24" rx="4" fill="transparent"/>
    <text x="70" y="130" text-anchor="middle" fill="rgba(255,255,255,0.3)" font-family="monospace" font-size="9">Allocation</text>
    <rect x="12" y="146" width="116" height="24" rx="4" fill="transparent"/>
    <text x="70" y="162" text-anchor="middle" fill="rgba(255,255,255,0.3)" font-family="monospace" font-size="9">Robotics</text>
    <rect x="12" y="178" width="116" height="24" rx="4" fill="transparent"/>
    <text x="70" y="194" text-anchor="middle" fill="rgba(255,255,255,0.3)" font-family="monospace" font-size="9">Analytics</text>
    <!-- Main content area -->
    <!-- KPI Cards -->
    <rect x="156" y="44" width="130" height="60" rx="6" fill="rgba(16,185,129,0.1)" stroke="rgba(16,185,129,0.3)" stroke-width="1"/>
    <text x="221" y="65" text-anchor="middle" fill="rgba(16,185,129,0.6)" font-family="monospace" font-size="9">THROUGHPUT</text>
    <text x="221" y="88" text-anchor="middle" fill="#10B981" font-family="monospace" font-size="20" font-weight="bold">2,847</text>
    <rect x="298" y="44" width="130" height="60" rx="6" fill="rgba(59,130,246,0.1)" stroke="rgba(59,130,246,0.3)" stroke-width="1"/>
    <text x="363" y="65" text-anchor="middle" fill="rgba(59,130,246,0.6)" font-family="monospace" font-size="9">EFFICIENCY</text>
    <text x="363" y="88" text-anchor="middle" fill="#3B82F6" font-family="monospace" font-size="20" font-weight="bold">94.2%</text>
    <rect x="440" y="44" width="130" height="60" rx="6" fill="rgba(245,158,11,0.1)" stroke="rgba(245,158,11,0.3)" stroke-width="1"/>
    <text x="505" y="65" text-anchor="middle" fill="rgba(245,158,11,0.6)" font-family="monospace" font-size="9">ROBOTS</text>
    <text x="505" y="88" text-anchor="middle" fill="#F59E0B" font-family="monospace" font-size="20" font-weight="bold">128</text>
    <!-- Chart area -->
    <rect x="156" y="116" width="414" height="140" rx="6" fill="rgba(59,130,246,0.05)" stroke="rgba(59,130,246,0.15)" stroke-width="1"/>
    <!-- Chart bars -->
    <rect x="185" y="200" width="20" height="40" rx="2" fill="rgba(59,130,246,0.4)"/>
    <rect x="220" y="180" width="20" height="60" rx="2" fill="rgba(59,130,246,0.5)"/>
    <rect x="255" y="170" width="20" height="70" rx="2" fill="rgba(59,130,246,0.6)"/>
    <rect x="290" y="155" width="20" height="85" rx="2" fill="rgba(59,130,246,0.6)"/>
    <rect x="325" y="160" width="20" height="80" rx="2" fill="rgba(59,130,246,0.5)"/>
    <rect x="360" y="140" width="20" height="100" rx="2" fill="rgba(59,130,246,0.7)"/>
    <rect x="395" y="145" width="20" height="95" rx="2" fill="rgba(59,130,246,0.65)"/>
    <rect x="430" y="130" width="20" height="110" rx="2" fill="#3B82F6" opacity="0.8"/>
    <rect x="465" y="135" width="20" height="105" rx="2" fill="rgba(59,130,246,0.7)"/>
    <rect x="500" y="125" width="20" height="115" rx="2" fill="#3B82F6" opacity="0.9"/>
    <!-- Trend line -->
    <polyline points="195,195 230,175 265,165 300,150 335,155 370,135 405,140 440,125 475,130 510,120" fill="none" stroke="#10B981" stroke-width="2" opacity="0.6"/>
    <!-- Floor plan mini -->
    <rect x="156" y="268" width="200" height="68" rx="6" fill="rgba(139,92,246,0.05)" stroke="rgba(139,92,246,0.15)" stroke-width="1"/>
    <text x="256" y="285" text-anchor="middle" fill="rgba(139,92,246,0.5)" font-family="monospace" font-size="8">FLOOR PLAN</text>
    <rect x="170" y="294" width="30" height="30" rx="2" fill="rgba(139,92,246,0.15)"/>
    <rect x="208" y="294" width="30" height="30" rx="2" fill="rgba(139,92,246,0.15)"/>
    <rect x="246" y="294" width="30" height="30" rx="2" fill="rgba(139,92,246,0.15)"/>
    <rect x="284" y="294" width="30" height="30" rx="2" fill="rgba(59,130,246,0.2)"/>
    <rect x="322" y="294" width="30" height="30" rx="2" fill="rgba(139,92,246,0.15)"/>
    <!-- Activity feed mini -->
    <rect x="370" y="268" width="200" height="68" rx="6" fill="rgba(16,185,129,0.05)" stroke="rgba(16,185,129,0.15)" stroke-width="1"/>
    <text x="470" y="285" text-anchor="middle" fill="rgba(16,185,129,0.5)" font-family="monospace" font-size="8">ACTIVITY LOG</text>
    <rect x="382" y="294" width="176" height="8" rx="2" fill="rgba(16,185,129,0.1)"/>
    <rect x="382" y="306" width="140" height="8" rx="2" fill="rgba(16,185,129,0.08)"/>
    <rect x="382" y="318" width="160" height="8" rx="2" fill="rgba(16,185,129,0.06)"/>
  </g>
</svg>