<svg xmlns="http://www.w3.org/2000/svg" viewBox="0 0 420 44">
  <defs>
    <linearGradient id="wg" x1="0" y1="0" x2="0" y2="32" gradientUnits="userSpaceOnUse">
      <stop offset="0%" stop-color="#FFFFFF"/>
      <stop offset="70%" stop-color="#FFFFFF"/>
      <stop offset="85%" stop-color="#F5F5F6"/>
      <stop offset="100%" stop-color="#E8E9EB"/>
    </linearGradient>
  </defs>

  <!-- === GROUND Logo (left) === -->
  <g transform="translate(0, 4)">
    <!-- G Mark: 36x24 -->
    <path fill="url(#wg)"
          d="M0 0 H36 V2.4 H2.4 V21.6 H33.6 V12 H36 V24 H0 Z"/>
    <!-- GROUND text -->
    <text x="44" y="19.5"
          font-family="'Liberation Sans',Arial,Helvetica,sans-serif"
          font-weight="700" font-size="20" letter-spacing="-0.3"
          fill="url(#wg)"
          stroke="#0a0c14" stroke-width="0.3" stroke-linejoin="round"
          paint-order="fill stroke">GROUND</text>
  </g>

  <!-- === Divider === -->
  <line x1="200" y1="6" x2="200" y2="38" stroke="#FFFFFF" stroke-opacity="0.15" stroke-width="0.5"/>

  <!-- === GWES Lockup (right) === -->
  <g transform="translate(218, 2)">
    <!-- Particle grid icon (28x28) -->
    <g transform="translate(0, 4) scale(0.233)">
      <circle cx="60" cy="40" r="3.5" fill="#6ac6ec" opacity="0.17"/>
      <circle cx="80" cy="40" r="3.7" fill="#72c9ed" opacity="0.24"/>
      <circle cx="100" cy="40" r="3.5" fill="#6ac6ec" opacity="0.17"/>
      <circle cx="40" cy="60" r="3.8" fill="#7accee" opacity="0.32"/>
      <circle cx="60" cy="60" r="4.4" fill="#96d6f2" opacity="0.54"/>
      <circle cx="80" cy="60" r="4.6" fill="#a1dbf3" opacity="0.62"/>
      <circle cx="100" cy="60" r="4.4" fill="#96d6f2" opacity="0.54"/>
      <circle cx="120" cy="60" r="3.8" fill="#7accee" opacity="0.32"/>
      <circle cx="20" cy="80" r="3.5" fill="#6ac6ec" opacity="0.17"/>
      <circle cx="40" cy="80" r="4.4" fill="#96d6f2" opacity="0.54"/>
      <circle cx="60" cy="80" r="5.0" fill="#bce5f6" opacity="0.77"/>
      <circle cx="80" cy="80" r="5.4" fill="#d0edf9" opacity="0.84"/>
      <circle cx="100" cy="80" r="5.0" fill="#bce5f6" opacity="0.77"/>
      <circle cx="120" cy="80" r="4.4" fill="#96d6f2" opacity="0.54"/>
      <circle cx="140" cy="80" r="3.5" fill="#6ac6ec" opacity="0.17"/>
      <circle cx="20" cy="100" r="3.7" fill="#72c9ed" opacity="0.24"/>
      <circle cx="40" cy="100" r="4.6" fill="#a1dbf3" opacity="0.62"/>
      <circle cx="60" cy="100" r="5.4" fill="#d0edf9" opacity="0.84"/>
      <circle cx="80" cy="100" r="6.2" fill="#ffffff" opacity="0.92"/>
      <circle cx="100" cy="100" r="5.4" fill="#d0edf9" opacity="0.84"/>
      <circle cx="120" cy="100" r="4.6" fill="#a1dbf3" opacity="0.62"/>
      <circle cx="140" cy="100" r="3.7" fill="#72c9ed" opacity="0.24"/>
      <circle cx="20" cy="120" r="3.5" fill="#6ac6ec" opacity="0.17"/>
      <circle cx="40" cy="120" r="4.4" fill="#96d6f2" opacity="0.54"/>
      <circle cx="60" cy="120" r="5.0" fill="#bce5f6" opacity="0.77"/>
      <circle cx="80" cy="120" r="5.4" fill="#d0edf9" opacity="0.84"/>
      <circle cx="100" cy="120" r="5.0" fill="#bce5f6" opacity="0.77"/>
      <circle cx="120" cy="120" r="4.4" fill="#96d6f2" opacity="0.54"/>
      <circle cx="140" cy="120" r="3.5" fill="#6ac6ec" opacity="0.17"/>
      <circle cx="40" cy="140" r="3.8" fill="#7accee" opacity="0.32"/>
      <circle cx="60" cy="140" r="4.4" fill="#96d6f2" opacity="0.54"/>
      <circle cx="80" cy="140" r="4.6" fill="#a1dbf3" opacity="0.62"/>
      <circle cx="100" cy="140" r="4.4" fill="#96d6f2" opacity="0.54"/>
      <circle cx="120" cy="140" r="3.8" fill="#7accee" opacity="0.32"/>
      <circle cx="60" cy="160" r="3.5" fill="#6ac6ec" opacity="0.17"/>
      <circle cx="80" cy="160" r="3.7" fill="#72c9ed" opacity="0.24"/>
      <circle cx="100" cy="160" r="3.5" fill="#6ac6ec" opacity="0.17"/>
    </g>
    <!-- GWES text -->
    <text x="46" y="19"
          font-family="'Liberation Sans',Arial,Helvetica,sans-serif"
          font-weight="700" font-size="19" letter-spacing="4"
          fill="#FFFFFF">GWES</text>
    <!-- Tagline -->
    <text x="46" y="32"
          font-family="Inter,Arial,sans-serif"
          font-weight="400" font-size="6.5" fill="#FFFFFF" opacity="0.6"
          letter-spacing="0.2">The OS for Autonomous Warehouse</text>
  </g>
</svg>
