<svg xmlns="http://www.w3.org/2000/svg" viewBox="0 0 420 44">
  <!-- GROUND + GWES Combined Lockup — Brand Identity Guidelines v1.0 -->
  <!-- Background: #0A0C14, Horizontal: GROUND (left) | divider | GWES (right) -->

  <defs>
    <!-- Ambient glow for GWES particle grid: #5BC0EB (GWES Cyan) -->
    <radialGradient id="gridGlow" cx="50%" cy="50%" r="55%">
      <stop offset="0%" stop-color="#5BC0EB" stop-opacity="0.10"/>
      <stop offset="100%" stop-color="#5BC0EB" stop-opacity="0"/>
    </radialGradient>
  </defs>

  <!-- === GROUND Logo (left) === -->
  <g transform="translate(0, 4)">
    <!-- G Mark: 36×24px, Color: #FFFFFF -->
    <path fill="#FFFFFF"
          d="M0 0 H36 V2.4 H2.4 V21.6 H33.6 V12 H36 V24 H0 Z"/>
    <!-- GROUND Wordmark: Archivo Bold 700, 22px, ls: 0.03em (0.66px) -->
    <text x="46" y="19.5"
          font-family="'Archivo','Helvetica Neue',Arial,sans-serif"
          font-weight="700" font-size="22" letter-spacing="0.66"
          fill="#FFFFFF">GROUND</text>
  </g>

  <!-- === Vertical Divider === -->
  <!-- 1px, rgba(200,205,216,0.22), height: 32px, 36px gaps each side -->
  <line x1="200" y1="6" x2="200" y2="38" stroke="#C8CDD8" stroke-opacity="0.22" stroke-width="1"/>

  <!-- === GWES Lockup (right) === -->
  <g transform="translate(218, 2)">
    <!-- Particle grid icon: 28×28px → scale 200→28 = 0.14 -->
    <!-- Grid placed at (0, 4), centered within 28×28 area -->
    <g transform="translate(0, 4) scale(0.14)">

      <!-- Ambient glow -->
      <circle cx="100" cy="100" r="90" fill="url(#gridGlow)"/>

      <!-- GLOW LAYER (explicit glow circles — no filters) -->
      <!-- Row 3 mid-zone glow -->
      <circle cx="80"  cy="80"  r="14" fill="#ceeaf8" opacity="0.07"/>
      <circle cx="100" cy="80"  r="16" fill="#dff0fb" opacity="0.09"/>
      <circle cx="120" cy="80"  r="14" fill="#ceeaf8" opacity="0.07"/>
      <!-- Row 4 center glow -->
      <circle cx="80"  cy="100" r="16" fill="#dff0fb" opacity="0.09"/>
      <circle cx="100" cy="100" r="22" fill="#ffffff" opacity="0.12"/>
      <circle cx="120" cy="100" r="16" fill="#dff0fb" opacity="0.09"/>
      <!-- Row 5 glow -->
      <circle cx="80"  cy="120" r="14" fill="#ceeaf8" opacity="0.07"/>
      <circle cx="100" cy="120" r="16" fill="#dff0fb" opacity="0.09"/>
      <circle cx="120" cy="120" r="14" fill="#ceeaf8" opacity="0.07"/>

      <!-- HALO LAYER -->
      <circle cx="100" cy="80"  r="11" fill="#dff0fb" opacity="0.04"/>
      <circle cx="80"  cy="100" r="11" fill="#dff0fb" opacity="0.04"/>
      <circle cx="120" cy="100" r="11" fill="#dff0fb" opacity="0.04"/>
      <circle cx="100" cy="120" r="11" fill="#dff0fb" opacity="0.04"/>
      <circle cx="100" cy="100" r="13" fill="#ffffff" opacity="0.08"/>

      <!-- DOT LAYER -->
      <!-- Row 1: 3 dots -->
      <circle cx="80"  cy="40"  r="3.9" fill="#80d0f0" opacity="0.28"/>
      <circle cx="100" cy="40"  r="4.1" fill="#8ad4f1" opacity="0.36"/>
      <circle cx="120" cy="40"  r="3.9" fill="#80d0f0" opacity="0.28"/>
      <!-- Row 2: 5 dots -->
      <circle cx="60"  cy="60"  r="4.1" fill="#8ad4f1" opacity="0.36"/>
      <circle cx="80"  cy="60"  r="4.8" fill="#a8ddf4" opacity="0.66"/>
      <circle cx="100" cy="60"  r="5.0" fill="#b4e2f5" opacity="0.74"/>
      <circle cx="120" cy="60"  r="4.8" fill="#a8ddf4" opacity="0.66"/>
      <circle cx="140" cy="60"  r="4.1" fill="#8ad4f1" opacity="0.36"/>
      <!-- Row 3: 7 dots -->
      <circle cx="40"  cy="80"  r="3.9" fill="#80d0f0" opacity="0.28"/>
      <circle cx="60"  cy="80"  r="4.8" fill="#a8ddf4" opacity="0.66"/>
      <circle cx="80"  cy="80"  r="5.5" fill="#ceeaf8" opacity="0.86"/>
      <circle cx="100" cy="80"  r="5.9" fill="#dff0fb" opacity="0.92"/>
      <circle cx="120" cy="80"  r="5.5" fill="#ceeaf8" opacity="0.86"/>
      <circle cx="140" cy="80"  r="4.8" fill="#a8ddf4" opacity="0.66"/>
      <circle cx="160" cy="80"  r="3.9" fill="#80d0f0" opacity="0.28"/>
      <!-- Row 4: 7 dots (center) -->
      <circle cx="40"  cy="100" r="4.1" fill="#8ad4f1" opacity="0.36"/>
      <circle cx="60"  cy="100" r="5.0" fill="#b4e2f5" opacity="0.74"/>
      <circle cx="80"  cy="100" r="5.9" fill="#dff0fb" opacity="0.92"/>
      <circle cx="100" cy="100" r="6.8" fill="#ffffff" opacity="1.0"/>
      <circle cx="120" cy="100" r="5.9" fill="#dff0fb" opacity="0.92"/>
      <circle cx="140" cy="100" r="5.0" fill="#b4e2f5" opacity="0.74"/>
      <circle cx="160" cy="100" r="4.1" fill="#8ad4f1" opacity="0.36"/>
      <!-- Row 5: 7 dots -->
      <circle cx="40"  cy="120" r="3.9" fill="#80d0f0" opacity="0.28"/>
      <circle cx="60"  cy="120" r="4.8" fill="#a8ddf4" opacity="0.66"/>
      <circle cx="80"  cy="120" r="5.5" fill="#ceeaf8" opacity="0.86"/>
      <circle cx="100" cy="120" r="5.9" fill="#dff0fb" opacity="0.92"/>
      <circle cx="120" cy="120" r="5.5" fill="#ceeaf8" opacity="0.86"/>
      <circle cx="140" cy="120" r="4.8" fill="#a8ddf4" opacity="0.66"/>
      <circle cx="160" cy="120" r="3.9" fill="#80d0f0" opacity="0.28"/>
      <!-- Row 6: 5 dots -->
      <circle cx="60"  cy="140" r="4.1" fill="#8ad4f1" opacity="0.36"/>
      <circle cx="80"  cy="140" r="4.8" fill="#a8ddf4" opacity="0.66"/>
      <circle cx="100" cy="140" r="5.0" fill="#b4e2f5" opacity="0.74"/>
      <circle cx="120" cy="140" r="4.8" fill="#a8ddf4" opacity="0.66"/>
      <circle cx="140" cy="140" r="4.1" fill="#8ad4f1" opacity="0.36"/>
      <!-- Row 7: 3 dots -->
      <circle cx="80"  cy="160" r="3.9" fill="#80d0f0" opacity="0.28"/>
      <circle cx="100" cy="160" r="4.1" fill="#8ad4f1" opacity="0.36"/>
      <circle cx="120" cy="160" r="3.9" fill="#80d0f0" opacity="0.28"/>
    </g>

    <!-- GWES text: Archivo Regular 400, 19px, ls: 0.28em (5.32px), #FFFFFF -->
    <text x="46" y="19"
          font-family="'Archivo','Helvetica Neue',Arial,sans-serif"
          font-weight="400" font-size="19" letter-spacing="5.32"
          fill="#FFFFFF">GWES</text>
    <!-- Tagline: Inter Regular 400, 7px, ls: 0.12em (0.84px), rgba(255,255,255,0.7) -->
    <text x="46" y="32"
          font-family="'Inter',sans-serif"
          font-weight="400" font-size="7" fill="#FFFFFF" opacity="0.7"
          letter-spacing="0.84">The OS for Autonomous Warehouse</text>
  </g>
</svg>
