<svg xmlns="http://www.w3.org/2000/svg" viewBox="0 0 600 200">
  <!-- GWES Full Lockup Dark — Brand Guidelines v1.2 -->
  <!-- Phyllotaxis Intelligence Mark + Logotype -->
  <rect width="600" height="200" fill="#0A0C14"/>
  <circle cx="110.00" cy="100.00" r="4.6" fill="#FFFFFF" opacity="1.0"/>
  <circle cx="101.85" cy="107.47" r="4.5" fill="#FFFFFF" opacity="0.986"/>
  <circle cx="111.37" cy="84.42" r="4.5" fill="#FFFFFF" opacity="0.971"/>
  <circle cx="121.65" cy="115.20" r="4.4" fill="#FFFFFF" opacity="0.957"/>
  <circle cx="88.22" cy="96.15" r="4.4" fill="#FFFFFF" opacity="0.942"/>
  <circle cx="130.86" cy="86.73" r="4.3" fill="#FFFFFF" opacity="0.928"/>
  <circle cx="102.97" cy="126.16" r="4.3" fill="#FFFFFF" opacity="0.913"/>
  <circle cx="96.52" cy="74.04" r="4.2" fill="#FFFFFF" opacity="0.899"/>
  <circle cx="139.38" cy="110.73" r="4.2" fill="#FFFFFF" opacity="0.884"/>
  <circle cx="79.34" cy="112.66" r="4.1" fill="#FFFFFF" opacity="0.87"/>
  <circle cx="124.82" cy="68.33" r="4.0" fill="#FFFFFF" opacity="0.856"/>
  <circle cx="120.98" cy="134.99" r="4.0" fill="#FFFFFF" opacity="0.841"/>
  <circle cx="76.86" cy="80.80" r="3.9" fill="#FFFFFF" opacity="0.827"/>
  <circle cx="148.94" cy="91.44" r="3.9" fill="#FFFFFF" opacity="0.812"/>
  <circle cx="86.21" cy="133.84" r="3.8" fill="#FFFFFF" opacity="0.798"/>
  <circle cx="104.50" cy="57.53" r="3.8" fill="#FFFFFF" opacity="0.783"/>
  <circle cx="143.82" cy="128.50" r="3.7" fill="#FFFFFF" opacity="0.769"/>
  <circle cx="64.45" cy="101.88" r="3.7" fill="#FFFFFF" opacity="0.754"/>
  <circle cx="143.25" cy="66.91" r="3.6" fill="#FFFFFF" opacity="0.74"/>
  <circle cx="107.77" cy="148.14" r="3.5" fill="#FFFFFF" opacity="0.726"/>
  <circle cx="78.32" cy="62.04" r="3.5" fill="#FFFFFF" opacity="0.711"/>
  <circle cx="160.22" cy="106.76" r="3.4" fill="#FFFFFF" opacity="0.697"/>
  <circle cx="67.43" cy="129.62" r="3.4" fill="#FFFFFF" opacity="0.682"/>
  <circle cx="121.64" cy="48.27" r="3.3" fill="#FFFFFF" opacity="0.668"/>
  <circle cx="136.93" cy="147.00" r="3.3" fill="#FFFFFF" opacity="0.653"/>
  <circle cx="57.33" cy="83.20" r="3.2" fill="#FFFFFF" opacity="0.639"/>
  <circle cx="161.18" cy="76.35" r="3.2" fill="#FFFFFF" opacity="0.624"/>
  <circle cx="87.82" cy="153.00" r="3.1" fill="#FFFFFF" opacity="0.61"/>
  <circle cx="90.20" cy="44.95" r="3.0" fill="#FFFFFF" opacity="0.596"/>
  <circle cx="162.71" cy="127.70" r="3.0" fill="#FFFFFF" opacity="0.581"/>
  <circle cx="51.44" cy="115.44" r="2.9" fill="#FFFFFF" opacity="0.567"/>
  <circle cx="143.29" cy="48.22" r="2.9" fill="#FFFFFF" opacity="0.552"/>
  <circle cx="120.60" cy="161.64" r="2.8" fill="#FFFFFF" opacity="0.538"/>
  <circle cx="59.78" cy="61.11" r="2.8" fill="#FFFFFF" opacity="0.523"/>
  <circle cx="174.25" cy="94.67" r="2.7" fill="#FFFFFF" opacity="0.509"/>
  <circle cx="65.58" cy="148.02" r="2.7" fill="#FFFFFF" opacity="0.494"/>
  <circle cx="110.32" cy="33.66" r="2.6" fill="#FFFFFF" opacity="0.48"/>
  <circle cx="155.19" cy="149.81" r="2.5" fill="#FFFFFF" opacity="0.466"/>
  <circle cx="42.13" cy="93.71" r="2.5" fill="#FFFFFF" opacity="0.451"/>
  <circle cx="165.00" cy="58.25" r="2.4" fill="#FFFFFF" opacity="0.437"/>
  <circle cx="97.49" cy="168.80" r="2.4" fill="#FFFFFF" opacity="0.422"/>
  <circle cx="72.29" cy="40.08" r="2.3" fill="#FFFFFF" opacity="0.408"/>
  <circle cx="179.11" cy="118.94" r="2.3" fill="#FFFFFF" opacity="0.393"/>
  <circle cx="45.50" cy="133.11" r="2.2" fill="#FFFFFF" opacity="0.379"/>
  <circle cx="135.49" cy="31.23" r="2.2" fill="#FFFFFF" opacity="0.364"/>
  <circle cx="137.97" cy="168.70" r="2.1" fill="#FFFFFF" opacity="0.35"/>
  <circle cx="42.23" cy="67.89" r="2.0" fill="#FFFFFF" opacity="0.336"/>
  <circle cx="182.44" cy="77.66" r="2.0" fill="#FFFFFF" opacity="0.321"/>
  <circle cx="71.27" cy="166.09" r="1.9" fill="#FFFFFF" opacity="0.307"/>
  <circle cx="93.75" cy="24.33" r="1.9" fill="#FFFFFF" opacity="0.292"/>
  <circle cx="173.74" cy="145.27" r="1.8" fill="#FFFFFF" opacity="0.278"/>
  <circle cx="31.64" cy="109.77" r="1.8" fill="#FFFFFF" opacity="0.263"/>
  <circle cx="161.68" cy="39.28" r="1.7" fill="#FFFFFF" opacity="0.249"/>
  <circle cx="112.94" cy="180.44" r="1.7" fill="#FFFFFF" opacity="0.234"/>
  <circle cx="52.97" cy="42.13" r="1.6" fill="#FFFFFF" opacity="0.22"/>
  <text x="230" y="104" font-family="'Archivo','Helvetica Neue',Arial,sans-serif" font-weight="700" font-size="52" letter-spacing="0.03em" fill="#FFFFFF">GWES</text>
  <text x="230" y="126" font-family="'Archivo','Helvetica Neue',Arial,sans-serif" font-weight="700" font-size="9" letter-spacing="0" fill="#FFFFFF" opacity="0.55">The OS for Autonomous Warehouse</text>
</svg>