<svg xmlns="http://www.w3.org/2000/svg" viewBox="0 0 600 400">
  <rect width="600" height="400" fill="#0A0C14"/>

  <defs>
    <radialGradient id="glow" cx="50%" cy="50%" r="55%">
      <stop offset="0%" stop-color="#7dd3f0" stop-opacity="0.10"/>
      <stop offset="100%" stop-color="#7dd3f0" stop-opacity="0"/>
    </radialGradient>
  </defs>

  <!-- V4 Grid Dominant Refined — bright particle grid -->
  <g transform="translate(116, -15) scale(1.15)">
    <circle cx="300" cy="135" r="95" fill="url(#glow)" transform="translate(-133.3, -33.3)"/>
    <!-- Row 1 -->
    <circle cx="133.3" cy="66.7" r="5.2" fill="#80d0f0" opacity="0.28"/>
    <circle cx="166.7" cy="66.7" r="5.5" fill="#8ad4f1" opacity="0.36"/>
    <circle cx="200.0" cy="66.7" r="5.2" fill="#80d0f0" opacity="0.28"/>
    <!-- Row 2 -->
    <circle cx="100.0" cy="100.0" r="5.6" fill="#8ed6f2" opacity="0.44"/>
    <circle cx="133.3" cy="100.0" r="6.4" fill="#a8ddf4" opacity="0.66"/>
    <circle cx="166.7" cy="100.0" r="6.7" fill="#b4e2f5" opacity="0.74"/>
    <circle cx="200.0" cy="100.0" r="6.4" fill="#a8ddf4" opacity="0.66"/>
    <circle cx="233.3" cy="100.0" r="5.6" fill="#8ed6f2" opacity="0.44"/>
    <!-- Row 3 -->
    <circle cx="66.7" cy="133.3" r="5.2" fill="#80d0f0" opacity="0.28"/>
    <circle cx="100.0" cy="133.3" r="6.4" fill="#a8ddf4" opacity="0.66"/>
    <circle cx="133.3" cy="133.3" r="7.3" fill="#ceeaf8" opacity="0.86"/>
    <circle cx="166.7" cy="133.3" r="14.1" fill="#dff0fb" opacity="0.04"/>
    <circle cx="166.7" cy="133.3" r="7.9" fill="#dff0fb" opacity="0.92"/>
    <circle cx="200.0" cy="133.3" r="7.3" fill="#ceeaf8" opacity="0.86"/>
    <circle cx="233.3" cy="133.3" r="6.4" fill="#a8ddf4" opacity="0.66"/>
    <circle cx="266.7" cy="133.3" r="5.2" fill="#80d0f0" opacity="0.28"/>
    <!-- Row 4 center -->
    <circle cx="66.7" cy="166.7" r="5.5" fill="#8ad4f1" opacity="0.36"/>
    <circle cx="100.0" cy="166.7" r="6.7" fill="#b4e2f5" opacity="0.74"/>
    <circle cx="133.3" cy="166.7" r="14.1" fill="#dff0fb" opacity="0.04"/>
    <circle cx="133.3" cy="166.7" r="7.9" fill="#dff0fb" opacity="0.92"/>
    <circle cx="166.7" cy="166.7" r="16.4" fill="#ffffff" opacity="0.08"/>
    <circle cx="166.7" cy="166.7" r="9.1" fill="#ffffff" opacity="1.0"/>
    <circle cx="200.0" cy="166.7" r="14.1" fill="#dff0fb" opacity="0.04"/>
    <circle cx="200.0" cy="166.7" r="7.9" fill="#dff0fb" opacity="0.92"/>
    <circle cx="233.3" cy="166.7" r="6.7" fill="#b4e2f5" opacity="0.74"/>
    <circle cx="266.7" cy="166.7" r="5.5" fill="#8ad4f1" opacity="0.36"/>
    <!-- Row 5 -->
    <circle cx="66.7" cy="200.0" r="5.2" fill="#80d0f0" opacity="0.28"/>
    <circle cx="100.0" cy="200.0" r="6.4" fill="#a8ddf4" opacity="0.66"/>
    <circle cx="133.3" cy="200.0" r="7.3" fill="#ceeaf8" opacity="0.86"/>
    <circle cx="166.7" cy="200.0" r="14.1" fill="#dff0fb" opacity="0.04"/>
    <circle cx="166.7" cy="200.0" r="7.9" fill="#dff0fb" opacity="0.92"/>
    <circle cx="200.0" cy="200.0" r="7.3" fill="#ceeaf8" opacity="0.86"/>
    <circle cx="233.3" cy="200.0" r="6.4" fill="#a8ddf4" opacity="0.66"/>
    <circle cx="266.7" cy="200.0" r="5.2" fill="#80d0f0" opacity="0.28"/>
    <!-- Row 6 -->
    <circle cx="100.0" cy="233.3" r="5.6" fill="#8ed6f2" opacity="0.44"/>
    <circle cx="133.3" cy="233.3" r="6.4" fill="#a8ddf4" opacity="0.66"/>
    <circle cx="166.7" cy="233.3" r="6.7" fill="#b4e2f5" opacity="0.74"/>
    <circle cx="200.0" cy="233.3" r="6.4" fill="#a8ddf4" opacity="0.66"/>
    <circle cx="233.3" cy="233.3" r="5.6" fill="#8ed6f2" opacity="0.44"/>
    <!-- Row 7 -->
    <circle cx="133.3" cy="266.7" r="5.2" fill="#80d0f0" opacity="0.28"/>
    <circle cx="166.7" cy="266.7" r="5.5" fill="#8ad4f1" opacity="0.36"/>
    <circle cx="200.0" cy="266.7" r="5.2" fill="#80d0f0" opacity="0.28"/>
  </g>

  <!-- Divider (closer to mark) -->
  <line x1="272" y1="300" x2="328" y2="300" stroke="#6ac6ec" stroke-width="1" opacity="0.4"/>

  <!-- GWES text (closer) -->
  <text x="300" y="326" text-anchor="middle" font-family="'Archivo', 'Helvetica Neue', Arial, sans-serif" font-weight="400" font-size="24" letter-spacing="7" fill="#FFFFFF">GWES</text>

  <!-- Tagline (white) -->
  <text x="300" y="344" text-anchor="middle" font-family="'Inter', sans-serif" font-weight="400" font-size="9" letter-spacing="2" fill="#FFFFFF" opacity="0.7">The OS for Autonomous Warehouse</text>
</svg>
