<svg xmlns="http://www.w3.org/2000/svg" viewBox="0 0 200 200">
  <!-- Phyllotaxis Intelligence Mark — Dark Background -->
  <!-- N=55, S=9.5, Golden Angle=137.5077° -->
  <circle cx="100.00" cy="100.00" r="4.6" fill="#FFFFFF" opacity="1.0"/>
  <circle cx="91.05" cy="108.20" r="4.5" fill="#FFFFFF" opacity="0.986"/>
  <circle cx="101.50" cy="82.90" r="4.5" fill="#FFFFFF" opacity="0.971"/>
  <circle cx="112.79" cy="116.68" r="4.4" fill="#FFFFFF" opacity="0.957"/>
  <circle cx="76.10" cy="95.77" r="4.4" fill="#FFFFFF" opacity="0.942"/>
  <circle cx="122.90" cy="85.44" r="4.3" fill="#FFFFFF" opacity="0.928"/>
  <circle cx="92.28" cy="128.71" r="4.3" fill="#FFFFFF" opacity="0.913"/>
  <circle cx="85.20" cy="71.51" r="4.2" fill="#FFFFFF" opacity="0.899"/>
  <circle cx="132.24" cy="111.77" r="4.2" fill="#FFFFFF" opacity="0.884"/>
  <circle cx="66.35" cy="113.89" r="4.1" fill="#FFFFFF" opacity="0.87"/>
  <circle cx="116.27" cy="65.24" r="4.0" fill="#FFFFFF" opacity="0.856"/>
  <circle cx="112.05" cy="138.40" r="4.0" fill="#FFFFFF" opacity="0.841"/>
  <circle cx="63.63" cy="78.92" r="3.9" fill="#FFFFFF" opacity="0.827"/>
  <circle cx="142.73" cy="90.60" r="3.9" fill="#FFFFFF" opacity="0.812"/>
  <circle cx="73.89" cy="137.15" r="3.8" fill="#FFFFFF" opacity="0.798"/>
  <circle cx="93.96" cy="53.39" r="3.8" fill="#FFFFFF" opacity="0.783"/>
  <circle cx="137.12" cy="131.28" r="3.7" fill="#FFFFFF" opacity="0.769"/>
  <circle cx="50.01" cy="102.07" r="3.7" fill="#FFFFFF" opacity="0.754"/>
  <circle cx="136.49" cy="63.68" r="3.6" fill="#FFFFFF" opacity="0.74"/>
  <circle cx="97.56" cy="152.84" r="3.5" fill="#FFFFFF" opacity="0.726"/>
  <circle cx="65.23" cy="58.33" r="3.5" fill="#FFFFFF" opacity="0.711"/>
  <circle cx="155.12" cy="107.41" r="3.4" fill="#FFFFFF" opacity="0.697"/>
  <circle cx="53.28" cy="132.51" r="3.4" fill="#FFFFFF" opacity="0.682"/>
  <circle cx="112.77" cy="43.22" r="3.3" fill="#FFFFFF" opacity="0.668"/>
  <circle cx="129.56" cy="151.58" r="3.3" fill="#FFFFFF" opacity="0.653"/>
  <circle cx="42.19" cy="81.56" r="3.2" fill="#FFFFFF" opacity="0.639"/>
  <circle cx="156.17" cy="74.04" r="3.2" fill="#FFFFFF" opacity="0.624"/>
  <circle cx="75.66" cy="158.17" r="3.1" fill="#FFFFFF" opacity="0.61"/>
  <circle cx="78.26" cy="39.57" r="3.0" fill="#FFFFFF" opacity="0.596"/>
  <circle cx="157.85" cy="130.40" r="3.0" fill="#FFFFFF" opacity="0.581"/>
  <circle cx="35.73" cy="116.94" r="2.9" fill="#FFFFFF" opacity="0.567"/>
  <circle cx="136.54" cy="43.17" r="2.9" fill="#FFFFFF" opacity="0.552"/>
  <circle cx="111.63" cy="167.66" r="2.8" fill="#FFFFFF" opacity="0.538"/>
  <circle cx="44.88" cy="57.32" r="2.8" fill="#FFFFFF" opacity="0.523"/>
  <circle cx="170.52" cy="94.15" r="2.7" fill="#FFFFFF" opacity="0.509"/>
  <circle cx="51.25" cy="152.70" r="2.7" fill="#FFFFFF" opacity="0.494"/>
  <circle cx="100.35" cy="27.19" r="2.6" fill="#FFFFFF" opacity="0.48"/>
  <circle cx="149.60" cy="154.67" r="2.5" fill="#FFFFFF" opacity="0.466"/>
  <circle cx="25.51" cy="93.10" r="2.5" fill="#FFFFFF" opacity="0.451"/>
  <circle cx="160.37" cy="54.18" r="2.4" fill="#FFFFFF" opacity="0.437"/>
  <circle cx="86.27" cy="175.51" r="2.4" fill="#FFFFFF" opacity="0.422"/>
  <circle cx="58.61" cy="34.23" r="2.3" fill="#FFFFFF" opacity="0.408"/>
  <circle cx="175.85" cy="120.78" r="2.3" fill="#FFFFFF" opacity="0.393"/>
  <circle cx="29.20" cy="136.34" r="2.2" fill="#FFFFFF" opacity="0.379"/>
  <circle cx="127.98" cy="24.52" r="2.2" fill="#FFFFFF" opacity="0.364"/>
  <circle cx="130.70" cy="175.40" r="2.1" fill="#FFFFFF" opacity="0.35"/>
  <circle cx="25.62" cy="64.75" r="2.0" fill="#FFFFFF" opacity="0.336"/>
  <circle cx="179.50" cy="75.48" r="2.0" fill="#FFFFFF" opacity="0.321"/>
  <circle cx="57.49" cy="172.54" r="1.9" fill="#FFFFFF" opacity="0.307"/>
  <circle cx="82.16" cy="16.95" r="1.9" fill="#FFFFFF" opacity="0.292"/>
  <circle cx="169.96" cy="149.69" r="1.8" fill="#FFFFFF" opacity="0.278"/>
  <circle cx="14.00" cy="110.72" r="1.8" fill="#FFFFFF" opacity="0.263"/>
  <circle cx="156.72" cy="33.36" r="1.7" fill="#FFFFFF" opacity="0.249"/>
  <circle cx="103.22" cy="188.29" r="1.7" fill="#FFFFFF" opacity="0.234"/>
  <circle cx="37.40" cy="36.49" r="1.6" fill="#FFFFFF" opacity="0.22"/>
</svg>