<svg xmlns="http://www.w3.org/2000/svg" viewBox="0 0 200 200">
  <circle cx="80.0" cy="40.0" r="3.9" fill="#6ac6ec" opacity="0.17"/>
  <circle cx="100.0" cy="40.0" r="4.1" fill="#72c9ed" opacity="0.24"/>
  <circle cx="120.0" cy="40.0" r="3.9" fill="#6ac6ec" opacity="0.17"/>
  <circle cx="60.0" cy="60.0" r="4.2" fill="#7accee" opacity="0.32"/>
  <circle cx="80.0" cy="60.0" r="4.8" fill="#96d6f2" opacity="0.54"/>
  <circle cx="100.0" cy="60.0" r="5.0" fill="#a1dbf3" opacity="0.62"/>
  <circle cx="120.0" cy="60.0" r="4.8" fill="#96d6f2" opacity="0.54"/>
  <circle cx="140.0" cy="60.0" r="4.2" fill="#7accee" opacity="0.32"/>
  <circle cx="40.0" cy="80.0" r="3.9" fill="#6ac6ec" opacity="0.17"/>
  <circle cx="60.0" cy="80.0" r="4.8" fill="#96d6f2" opacity="0.54"/>
  <circle cx="80.0" cy="80.0" r="5.5" fill="#bce5f6" opacity="0.77"/>
  <circle cx="100.0" cy="80.0" r="10.6" fill="#d0edf9" opacity="0.014"/>
  <circle cx="100.0" cy="80.0" r="5.9" fill="#d0edf9" opacity="0.84"/>
  <circle cx="120.0" cy="80.0" r="5.5" fill="#bce5f6" opacity="0.77"/>
  <circle cx="140.0" cy="80.0" r="4.8" fill="#96d6f2" opacity="0.54"/>
  <circle cx="160.0" cy="80.0" r="3.9" fill="#6ac6ec" opacity="0.17"/>
  <circle cx="40.0" cy="100.0" r="4.1" fill="#72c9ed" opacity="0.24"/>
  <circle cx="60.0" cy="100.0" r="5.0" fill="#a1dbf3" opacity="0.62"/>
  <circle cx="80.0" cy="100.0" r="10.6" fill="#d0edf9" opacity="0.014"/>
  <circle cx="80.0" cy="100.0" r="5.9" fill="#d0edf9" opacity="0.84"/>
  <circle cx="100.0" cy="100.0" r="12.3" fill="#ffffff" opacity="0.048"/>
  <circle cx="100.0" cy="100.0" r="6.8" fill="#ffffff" opacity="0.92"/>
  <circle cx="120.0" cy="100.0" r="10.6" fill="#d0edf9" opacity="0.014"/>
  <circle cx="120.0" cy="100.0" r="5.9" fill="#d0edf9" opacity="0.84"/>
  <circle cx="140.0" cy="100.0" r="5.0" fill="#a1dbf3" opacity="0.62"/>
  <circle cx="160.0" cy="100.0" r="4.1" fill="#72c9ed" opacity="0.24"/>
  <circle cx="40.0" cy="120.0" r="3.9" fill="#6ac6ec" opacity="0.17"/>
  <circle cx="60.0" cy="120.0" r="4.8" fill="#96d6f2" opacity="0.54"/>
  <circle cx="80.0" cy="120.0" r="5.5" fill="#bce5f6" opacity="0.77"/>
  <circle cx="100.0" cy="120.0" r="10.6" fill="#d0edf9" opacity="0.014"/>
  <circle cx="100.0" cy="120.0" r="5.9" fill="#d0edf9" opacity="0.84"/>
  <circle cx="120.0" cy="120.0" r="5.5" fill="#bce5f6" opacity="0.77"/>
  <circle cx="140.0" cy="120.0" r="4.8" fill="#96d6f2" opacity="0.54"/>
  <circle cx="160.0" cy="120.0" r="3.9" fill="#6ac6ec" opacity="0.17"/>
  <circle cx="60.0" cy="140.0" r="4.2" fill="#7accee" opacity="0.32"/>
  <circle cx="80.0" cy="140.0" r="4.8" fill="#96d6f2" opacity="0.54"/>
  <circle cx="100.0" cy="140.0" r="5.0" fill="#a1dbf3" opacity="0.62"/>
  <circle cx="120.0" cy="140.0" r="4.8" fill="#96d6f2" opacity="0.54"/>
  <circle cx="140.0" cy="140.0" r="4.2" fill="#7accee" opacity="0.32"/>
  <circle cx="80.0" cy="160.0" r="3.9" fill="#6ac6ec" opacity="0.17"/>
  <circle cx="100.0" cy="160.0" r="4.1" fill="#72c9ed" opacity="0.24"/>
  <circle cx="120.0" cy="160.0" r="3.9" fill="#6ac6ec" opacity="0.17"/>
</svg>